<mxfile host="app.diagrams.net" modified="2022-06-18T16:29:37.442Z" agent="5.0 (Windows NT 10.0; Win64; x64) AppleWebKit/537.36 (KHTML, like Gecko) Chrome/102.0.5005.115 Safari/537.36" etag="otA0CDQHj2THrx1kvvbg" version="20.0.1" type="github">
  <diagram id="OWx4hyj13moDCeKYkGol" name="Page-1">
    <mxGraphModel dx="948" dy="508" grid="0" gridSize="10" guides="1" tooltips="1" connect="1" arrows="1" fold="1" page="1" pageScale="1" pageWidth="827" pageHeight="1169" background="none" math="0" shadow="0">
      <root>
        <mxCell id="0" />
        <mxCell id="1" parent="0" />
        <mxCell id="R_TbPJ2dsLFKyycq7Uun-33" value="" style="endArrow=none;html=1;rounded=0;fontSize=12;dashed=1;strokeWidth=4;shadow=0;fontStyle=0" parent="1" edge="1">
          <mxGeometry width="50" height="50" relative="1" as="geometry">
            <mxPoint x="405" y="172" as="sourcePoint" />
            <mxPoint x="405" y="833" as="targetPoint" />
          </mxGeometry>
        </mxCell>
        <mxCell id="R_TbPJ2dsLFKyycq7Uun-34" value="&lt;span style=&quot;font-size: 15px;&quot;&gt;&lt;font style=&quot;font-size: 15px;&quot;&gt;0.0&lt;br&gt;&lt;/font&gt;&lt;/span&gt;&lt;div style=&quot;font-size: 15px;&quot;&gt;&lt;span style=&quot;background-color: initial;&quot;&gt;&lt;font style=&quot;font-size: 15px;&quot;&gt;Мобильное приложение для виртуального&amp;nbsp;&lt;/font&gt;&lt;/span&gt;&lt;/div&gt;&lt;span style=&quot;font-family: Roboto, -apple-system, BlinkMacSystemFont, &amp;quot;Apple Color Emoji&amp;quot;, &amp;quot;Segoe UI&amp;quot;, Oxygen, Ubuntu, Cantarell, &amp;quot;Fira Sans&amp;quot;, &amp;quot;Droid Sans&amp;quot;, &amp;quot;Helvetica Neue&amp;quot;, sans-serif; background-color: rgb(255, 255, 255); font-size: 15px;&quot;&gt;&lt;font style=&quot;font-size: 15px;&quot;&gt;ассистента&lt;/font&gt;&lt;/span&gt;" style="ellipse;shape=doubleEllipse;whiteSpace=wrap;html=1;aspect=fixed;fontStyle=0;fontSize=14;" parent="1" vertex="1">
          <mxGeometry x="661" y="400" width="160" height="160" as="geometry" />
        </mxCell>
        <mxCell id="R_TbPJ2dsLFKyycq7Uun-35" value="&lt;div style=&quot;line-height: 0.9;&quot;&gt;&lt;br&gt;&lt;/div&gt;&lt;div style=&quot;display:none&quot; id=&quot;SDCloudData&quot;&gt;&lt;/div&gt;" style="text;whiteSpace=wrap;html=1;fontStyle=0" parent="1" vertex="1">
          <mxGeometry x="392" y="165" width="3" height="15" as="geometry" />
        </mxCell>
        <mxCell id="R_TbPJ2dsLFKyycq7Uun-36" value="1.0&lt;br style=&quot;font-size: 14px;&quot;&gt;Пользователь&lt;div style=&quot;display: none; font-size: 14px;&quot; id=&quot;SDCloudData&quot;&gt;&lt;/div&gt;" style="html=1;dashed=0;whitespace=wrap;fontStyle=0;fontSize=14;" parent="1" vertex="1">
          <mxGeometry x="130" y="424" width="130" height="50" as="geometry" />
        </mxCell>
        <mxCell id="R_TbPJ2dsLFKyycq7Uun-37" value="ИНТРАСЕТЬ&amp;nbsp; &amp;nbsp; &amp;nbsp; &amp;nbsp; &amp;nbsp; &amp;nbsp; &amp;nbsp; &amp;nbsp; &amp;nbsp; &amp;nbsp; &amp;nbsp; &amp;nbsp; &amp;nbsp; &amp;nbsp; &amp;nbsp; &amp;nbsp; &amp;nbsp; &amp;nbsp; ЦЕНТР ДАННЫХ&lt;div style=&quot;display: none; font-size: 14px;&quot; id=&quot;SDCloudData&quot;&gt;&lt;/div&gt;" style="text;whiteSpace=wrap;html=1;strokeWidth=2;fontStyle=0;fontSize=14;" parent="1" vertex="1">
          <mxGeometry x="250" y="150" width="381" height="30" as="geometry" />
        </mxCell>
        <mxCell id="R_TbPJ2dsLFKyycq7Uun-38" value="&lt;div style=&quot;&quot;&gt;&lt;span style=&quot;background-color: rgb(255, 255, 255); font-family: Roboto, -apple-system, BlinkMacSystemFont, &amp;quot;Apple Color Emoji&amp;quot;, &amp;quot;Segoe UI&amp;quot;, Oxygen, Ubuntu, Cantarell, &amp;quot;Fira Sans&amp;quot;, &amp;quot;Droid Sans&amp;quot;, &amp;quot;Helvetica Neue&amp;quot;, sans-serif;&quot;&gt;&lt;font style=&quot;font-size: 18px;&quot;&gt;приложение виртуального ассистента&lt;/font&gt;&lt;/span&gt;&lt;/div&gt;" style="text;whiteSpace=wrap;html=1;fontSize=19;fontStyle=0;align=center;" parent="1" vertex="1">
          <mxGeometry x="130" y="78" width="600" height="30" as="geometry" />
        </mxCell>
        <mxCell id="R_TbPJ2dsLFKyycq7Uun-39" value="2.0&lt;br style=&quot;font-size: 14px;&quot;&gt;Мобильный&lt;br&gt;&amp;nbsp;разработчик&lt;div style=&quot;display: none; font-size: 14px;&quot; id=&quot;SDCloudData&quot;&gt;&lt;/div&gt;" style="html=1;dashed=0;whitespace=wrap;fontStyle=0;fontSize=14;" parent="1" vertex="1">
          <mxGeometry x="146" y="239" width="130" height="50" as="geometry" />
        </mxCell>
        <mxCell id="R_TbPJ2dsLFKyycq7Uun-40" value="3.0&lt;br style=&quot;font-size: 14px;&quot;&gt;Администратор&lt;br&gt;&lt;div style=&quot;display: none; font-size: 14px;&quot; id=&quot;SDCloudData&quot;&gt;&lt;/div&gt;" style="html=1;dashed=0;whitespace=wrap;fontStyle=0;fontSize=14;" parent="1" vertex="1">
          <mxGeometry x="164" y="675" width="130" height="50" as="geometry" />
        </mxCell>
        <mxCell id="R_TbPJ2dsLFKyycq7Uun-41" value="" style="curved=1;endArrow=classic;html=1;rounded=0;fontSize=19;exitX=0.626;exitY=-0.083;exitDx=0;exitDy=0;exitPerimeter=0;fontStyle=0" parent="1" source="R_TbPJ2dsLFKyycq7Uun-36" target="R_TbPJ2dsLFKyycq7Uun-34" edge="1">
          <mxGeometry width="50" height="50" relative="1" as="geometry">
            <mxPoint x="266" y="442" as="sourcePoint" />
            <mxPoint x="714.4800000000002" y="489.4799999999998" as="targetPoint" />
            <Array as="points">
              <mxPoint x="357" y="337" />
              <mxPoint x="629" y="396" />
            </Array>
          </mxGeometry>
        </mxCell>
        <mxCell id="R_TbPJ2dsLFKyycq7Uun-42" value="&lt;font style=&quot;font-size: 14px;&quot;&gt;голосовая команда&lt;/font&gt;" style="edgeLabel;html=1;align=center;verticalAlign=middle;resizable=0;points=[];fontSize=19;fontStyle=0" parent="R_TbPJ2dsLFKyycq7Uun-41" vertex="1" connectable="0">
          <mxGeometry x="0.2408" y="-22" relative="1" as="geometry">
            <mxPoint x="20" y="-3" as="offset" />
          </mxGeometry>
        </mxCell>
        <mxCell id="R_TbPJ2dsLFKyycq7Uun-43" value="" style="curved=1;endArrow=classic;html=1;rounded=0;fontSize=19;exitX=0;exitY=0;exitDx=0;exitDy=0;entryX=0.5;entryY=1;entryDx=0;entryDy=0;fontStyle=0" parent="1" source="R_TbPJ2dsLFKyycq7Uun-34" target="R_TbPJ2dsLFKyycq7Uun-36" edge="1">
          <mxGeometry width="50" height="50" relative="1" as="geometry">
            <mxPoint x="240" y="260" as="sourcePoint" />
            <mxPoint x="290" y="210" as="targetPoint" />
            <Array as="points">
              <mxPoint x="570" y="555" />
              <mxPoint x="316" y="536" />
            </Array>
          </mxGeometry>
        </mxCell>
        <mxCell id="R_TbPJ2dsLFKyycq7Uun-44" value="&lt;span style=&quot;font-family: Roboto, -apple-system, BlinkMacSystemFont, &amp;quot;Apple Color Emoji&amp;quot;, &amp;quot;Segoe UI&amp;quot;, Oxygen, Ubuntu, Cantarell, &amp;quot;Fira Sans&amp;quot;, &amp;quot;Droid Sans&amp;quot;, &amp;quot;Helvetica Neue&amp;quot;, sans-serif; font-size: 16px; text-align: start;&quot;&gt;результат голосовой команды&lt;/span&gt;" style="edgeLabel;html=1;align=center;verticalAlign=middle;resizable=0;points=[];fontSize=14;fontStyle=0" parent="R_TbPJ2dsLFKyycq7Uun-43" vertex="1" connectable="0">
          <mxGeometry x="0.4035" y="-17" relative="1" as="geometry">
            <mxPoint x="1" y="-13" as="offset" />
          </mxGeometry>
        </mxCell>
        <mxCell id="R_TbPJ2dsLFKyycq7Uun-45" value="" style="curved=1;endArrow=classic;html=1;rounded=0;fontSize=14;exitX=1;exitY=0.25;exitDx=0;exitDy=0;entryX=0.5;entryY=0;entryDx=0;entryDy=0;fontStyle=0" parent="1" source="R_TbPJ2dsLFKyycq7Uun-39" target="R_TbPJ2dsLFKyycq7Uun-34" edge="1">
          <mxGeometry width="50" height="50" relative="1" as="geometry">
            <mxPoint x="400" y="290" as="sourcePoint" />
            <mxPoint x="450" y="240" as="targetPoint" />
            <Array as="points">
              <mxPoint x="604" y="217" />
            </Array>
          </mxGeometry>
        </mxCell>
        <mxCell id="R_TbPJ2dsLFKyycq7Uun-46" value="Обновленые файле" style="edgeLabel;html=1;align=center;verticalAlign=middle;resizable=0;points=[];fontSize=14;fontStyle=0" parent="R_TbPJ2dsLFKyycq7Uun-45" vertex="1" connectable="0">
          <mxGeometry x="0.3003" y="-18" relative="1" as="geometry">
            <mxPoint x="-80" y="11" as="offset" />
          </mxGeometry>
        </mxCell>
        <mxCell id="R_TbPJ2dsLFKyycq7Uun-47" value="" style="curved=1;endArrow=classic;html=1;rounded=0;fontSize=14;exitX=0.414;exitY=0.037;exitDx=0;exitDy=0;entryX=0;entryY=1;entryDx=0;entryDy=0;exitPerimeter=0;fontStyle=0" parent="1" source="R_TbPJ2dsLFKyycq7Uun-40" target="R_TbPJ2dsLFKyycq7Uun-34" edge="1">
          <mxGeometry width="50" height="50" relative="1" as="geometry">
            <mxPoint x="213" y="519" as="sourcePoint" />
            <mxPoint x="647.4599999999998" y="578.8399999999999" as="targetPoint" />
            <Array as="points">
              <mxPoint x="423" y="563" />
            </Array>
          </mxGeometry>
        </mxCell>
        <mxCell id="R_TbPJ2dsLFKyycq7Uun-48" value="Запрос на административное&lt;br&gt;&amp;nbsp;воздействие" style="edgeLabel;html=1;align=center;verticalAlign=middle;resizable=0;points=[];fontSize=14;fontStyle=0" parent="R_TbPJ2dsLFKyycq7Uun-47" vertex="1" connectable="0">
          <mxGeometry x="-0.3113" y="-5" relative="1" as="geometry">
            <mxPoint x="17" y="35" as="offset" />
          </mxGeometry>
        </mxCell>
        <mxCell id="R_TbPJ2dsLFKyycq7Uun-49" value="" style="curved=1;endArrow=classic;html=1;rounded=0;fontSize=14;exitX=0.5;exitY=1;exitDx=0;exitDy=0;entryX=0.438;entryY=1.068;entryDx=0;entryDy=0;entryPerimeter=0;fontStyle=0" parent="1" source="R_TbPJ2dsLFKyycq7Uun-34" target="R_TbPJ2dsLFKyycq7Uun-40" edge="1">
          <mxGeometry width="50" height="50" relative="1" as="geometry">
            <mxPoint x="660.5025253169417" y="609.497474683058" as="sourcePoint" />
            <mxPoint x="175" y="572" as="targetPoint" />
            <Array as="points">
              <mxPoint x="599" y="678" />
              <mxPoint x="461" y="794" />
            </Array>
          </mxGeometry>
        </mxCell>
        <mxCell id="R_TbPJ2dsLFKyycq7Uun-50" value="Отклик на административное&lt;br&gt;&amp;nbsp;воздействие" style="edgeLabel;html=1;align=center;verticalAlign=middle;resizable=0;points=[];fontSize=14;fontStyle=0" parent="R_TbPJ2dsLFKyycq7Uun-49" vertex="1" connectable="0">
          <mxGeometry x="0.2723" y="-8" relative="1" as="geometry">
            <mxPoint x="183" y="-43" as="offset" />
          </mxGeometry>
        </mxCell>
      </root>
    </mxGraphModel>
  </diagram>
</mxfile>
